<?xml version="1.0" standalone="no"?>
<!DOCTYPE svg PUBLIC "-//W3C//DTD SVG 20010904//EN"
 "http://www.w3.org/TR/2001/REC-SVG-20010904/DTD/svg10.dtd">
<svg version="1.0" xmlns="http://www.w3.org/2000/svg"
 width="450.000000pt" height="512.000000pt" viewBox="0 0 450.000000 512.000000"
 preserveAspectRatio="xMidYMid meet">
<metadata>
Created by potrace 1.15, written by Peter Selinger 2001-2017
</metadata>
<g transform="translate(0.000000,512.000000) scale(0.100000,-0.100000)"
fill="#000000" stroke="none">
<path d="M203 4958 c-174 -172 -196 -198 -191 -231 3 -19 32 5 192 163 103
102 192 193 197 203 8 14 5 17 -17 17 -21 0 -60 -33 -181 -152z"/>
<path d="M303 4858 c-140 -139 -264 -265 -275 -281 -10 -15 -18 -37 -16 -50 3
-18 49 23 292 263 158 157 292 293 297 303 8 14 5 17 -17 17 -22 0 -75 -47
-281 -252z"/>
<path d="M402 4758 c-194 -194 -362 -365 -373 -381 -11 -15 -19 -37 -17 -50 4
-18 67 40 392 363 213 212 392 393 397 403 8 14 5 17 -18 17 -22 0 -89 -62
-381 -352z"/>
<path d="M502 4658 c-249 -249 -462 -465 -473 -481 -11 -15 -19 -37 -17 -50 4
-18 84 57 492 463 268 267 492 493 497 503 8 14 5 17 -18 17 -22 0 -104 -76
-481 -452z"/>
<path d="M602 4558 c-304 -304 -562 -565 -573 -581 -11 -15 -19 -37 -17 -50 4
-18 101 75 592 563 323 322 592 593 597 603 8 14 5 17 -18 17 -23 0 -118 -91
-581 -552z"/>
<path d="M702 4458 c-359 -359 -662 -665 -673 -681 -11 -15 -19 -37 -17 -50 4
-18 118 92 692 663 378 377 692 693 697 703 8 14 5 17 -18 17 -23 0 -133 -106
-681 -652z"/>
<path d="M802 4358 c-414 -414 -762 -765 -773 -781 -11 -15 -19 -37 -17 -50 4
-18 136 109 792 763 433 432 792 793 797 803 8 14 5 17 -18 17 -23 0 -148
-120 -781 -752z"/>
<path d="M902 4258 c-469 -469 -862 -865 -873 -881 -11 -15 -19 -37 -17 -50 4
-18 112 86 657 628 560 558 647 641 617 589 -20 -34 -48 -90 -62 -125 -26 -60
-61 -98 -621 -659 -492 -495 -593 -600 -593 -623 0 -15 3 -27 7 -27 4 0 261
253 571 563 310 309 562 553 559 542 -3 -11 -13 -49 -22 -85 l-16 -65 -550
-550 c-455 -457 -549 -555 -549 -578 0 -15 3 -27 7 -27 4 0 247 240 540 532
293 293 533 528 533 523 0 -6 -5 -39 -11 -75 l-10 -65 -529 -530 c-439 -440
-530 -535 -530 -558 0 -15 3 -27 7 -27 4 0 241 233 526 518 l519 517 -4 -68
-4 -68 -522 -522 c-432 -433 -522 -527 -522 -550 0 -15 3 -27 7 -27 4 0 238
231 520 512 l513 513 0 -65 0 -65 -520 -520 c-431 -431 -520 -525 -520 -548 0
-15 3 -27 7 -27 4 0 238 230 520 512 402 402 514 508 519 494 3 -9 4 -38 1
-63 -5 -45 -11 -51 -526 -567 -431 -432 -521 -526 -521 -549 0 -15 3 -27 7
-27 4 0 239 231 521 513 l514 512 -7 -70 -7 -70 -514 -515 c-425 -427 -514
-520 -514 -543 0 -15 3 -27 7 -27 4 0 233 226 509 501 l502 502 -15 -79 -14
-79 -495 -495 c-408 -410 -494 -501 -494 -523 0 -15 3 -27 7 -27 4 0 220 213
480 472 260 260 473 468 473 463 0 -6 -12 -46 -26 -90 l-26 -80 -454 -455
c-374 -376 -454 -461 -454 -483 0 -15 3 -27 7 -27 4 0 194 186 422 413 227
226 410 405 406 397 -54 -99 -160 -218 -241 -269 l-48 -31 54 0 54 0 -327
-328 c-267 -268 -327 -333 -327 -355 0 -15 3 -27 7 -27 3 0 71 64 150 143
l144 142 -56 -84 c-31 -47 -73 -116 -92 -155 -20 -39 -62 -99 -94 -134 -40
-42 -59 -71 -59 -88 0 -27 8 -26 49 10 24 20 24 20 17 1 -4 -11 -16 -53 -27
-94 -10 -41 -23 -79 -27 -85 -5 -6 -10 -105 -11 -221 -2 -168 1 -223 15 -275
15 -60 15 -66 -1 -96 -9 -17 -15 -39 -13 -49 3 -16 5 -16 28 3 l25 20 21 -41
22 -42 -49 -53 c-30 -33 -49 -63 -49 -78 0 -13 3 -24 6 -24 3 0 32 26 65 57
l60 57 31 -32 32 -31 -72 -75 c-40 -40 -72 -77 -72 -80 0 -3 11 -6 25 -6 17 0
47 21 94 66 l70 65 41 -21 41 -21 -35 -40 c-20 -21 -36 -41 -36 -44 0 -18 53
1 87 30 40 34 41 34 91 23 49 -12 49 -13 35 -35 -14 -22 -14 -23 8 -23 13 0
33 7 43 15 30 23 155 17 140 -6 -3 -5 6 -9 20 -9 14 0 28 4 31 10 3 5 40 10
81 10 48 0 73 -4 69 -10 -3 -6 5 -10 19 -10 14 0 28 5 31 10 3 6 40 10 81 10
48 0 73 -4 69 -10 -3 -6 5 -10 19 -10 14 0 28 4 31 10 3 5 40 10 81 10 48 0
73 -4 69 -10 -8 -13 38 -13 51 0 5 5 43 13 83 16 67 6 74 5 68 -9 -8 -22 30
-23 57 -2 13 10 43 15 84 15 53 0 63 -3 58 -15 -7 -20 32 -20 58 0 13 10 43
15 84 15 53 0 63 -3 58 -15 -7 -20 32 -20 58 0 13 10 43 15 84 15 53 0 63 -3
58 -15 -7 -20 32 -20 58 0 13 10 43 15 84 15 53 0 63 -3 58 -15 -7 -20 32 -20
58 0 13 10 43 15 84 15 53 0 63 -3 58 -15 -7 -20 32 -20 58 0 13 10 43 15 84
15 53 0 63 -3 58 -15 -7 -20 32 -20 58 0 13 10 43 15 84 15 53 0 63 -3 58 -15
-7 -20 32 -20 58 0 13 10 43 15 84 15 53 0 63 -3 58 -15 -4 -11 1 -15 19 -15
13 0 27 5 30 10 3 6 40 10 81 10 48 0 73 -4 69 -10 -3 -6 5 -10 19 -10 14 0
28 4 31 10 3 5 40 10 81 10 48 0 73 -4 69 -10 -3 -6 5 -10 19 -10 14 0 28 5
31 10 3 6 40 10 81 10 48 0 73 -4 69 -10 -8 -13 38 -13 51 -1 5 5 42 11 82 13
55 2 71 0 67 -10 -7 -18 33 -15 63 6 15 10 54 23 87 29 33 6 69 15 80 19 19 7
19 7 -1 -17 -36 -41 -37 -49 -11 -49 59 0 417 358 417 417 0 21 -2 22 -21 12
-18 -9 -20 -8 -15 8 30 97 39 343 17 463 -9 44 -8 59 4 77 8 12 15 32 15 43 0
18 -3 19 -20 10 -22 -12 -22 -12 -38 50 -8 32 -6 39 24 74 37 43 48 94 17 77
-10 -5 -29 -21 -42 -35 l-25 -26 -18 46 -17 47 59 64 c40 43 60 72 60 89 0 32
-18 23 -85 -45 -27 -28 -52 -51 -56 -51 -3 0 -14 18 -24 40 l-18 40 91 95 c67
68 92 101 92 120 0 14 -3 25 -6 25 -4 0 -51 -44 -105 -97 -54 -53 -100 -95
-102 -92 -2 2 -14 19 -26 37 l-23 33 131 134 c100 102 131 139 131 159 0 14
-3 26 -7 26 -3 0 -69 -62 -145 -137 l-139 -138 -29 35 -29 35 175 176 c137
139 174 182 174 203 0 14 -3 26 -7 26 -4 0 -89 -82 -190 -182 l-183 -182 -32
32 -32 32 222 223 c178 179 222 229 222 250 0 15 -3 27 -7 27 -4 0 -112 -104
-239 -232 l-233 -231 -36 28 -37 27 276 277 c224 225 276 283 276 304 0 15 -3
27 -7 27 -4 0 -136 -129 -294 -286 l-287 -287 -36 22 c-20 13 -36 25 -36 29 0
3 148 155 330 337 269 270 330 336 330 358 0 15 -3 27 -7 27 -4 0 -140 -133
-303 -295 l-296 -296 -36 28 -36 28 339 341 c277 278 339 345 339 367 0 15 -3
27 -7 27 -4 0 -165 -158 -358 -351 l-352 -350 -28 36 -27 37 386 387 c319 320
386 392 386 414 0 23 -3 26 -17 18 -10 -5 -189 -181 -398 -390 -209 -210 -383
-381 -387 -381 -3 0 -16 16 -29 36 l-22 36 427 427 c351 352 426 432 426 454
0 15 -3 27 -7 27 -4 0 -202 -194 -439 -431 l-432 -431 -17 47 -18 46 456 458
c380 380 457 462 457 484 0 23 -3 26 -17 18 -10 -5 -218 -210 -463 -455 -245
-245 -448 -446 -451 -446 -4 0 -12 21 -19 46 l-13 46 481 482 c398 398 482
487 482 509 0 15 -3 27 -7 27 -4 0 -224 -217 -489 -481 l-482 -482 -11 39 c-6
21 -11 46 -11 54 0 8 225 240 500 515 414 414 500 506 500 528 0 15 -3 27 -7
27 -4 0 -233 -225 -509 -501 l-501 -501 -8 57 -7 58 516 516 c427 428 516 521
516 544 0 15 -3 27 -7 27 -4 0 -238 -230 -519 -511 -510 -509 -511 -511 -518
-479 -15 79 -38 53 519 610 438 439 525 530 525 553 0 23 -3 26 -17 18 -10 -5
-245 -237 -522 -515 -278 -278 -508 -503 -513 -500 -4 3 -8 28 -8 57 l0 52
530 530 c439 440 530 535 530 558 0 15 -3 27 -7 27 -4 0 -241 -233 -525 -517
l-518 -518 0 65 0 65 525 525 c438 439 525 530 525 553 0 23 -3 26 -17 18 -10
-5 -245 -237 -522 -515 -278 -278 -508 -503 -513 -500 -4 3 -8 28 -8 57 l0 52
530 530 c439 440 530 535 530 558 0 15 -3 27 -7 27 -4 0 -244 -237 -534 -526
l-526 -526 -7 58 -7 58 541 541 c448 448 540 545 540 568 0 15 -3 27 -7 27 -4
0 -249 -241 -544 -536 -421 -421 -538 -533 -542 -518 -3 11 -8 35 -11 54 -6
35 -5 36 495 535 275 275 505 508 510 518 8 14 5 17 -18 17 -23 0 -109 -82
-518 -490 l-491 -491 -12 53 -13 52 431 431 c236 237 430 434 430 438 0 4 -12
7 -27 7 -22 0 -100 -73 -439 -411 l-412 -412 -16 38 c-9 20 -16 43 -16 49 0 6
156 166 346 356 190 190 350 353 355 363 8 14 5 17 -18 17 -22 0 -87 -60 -368
-340 l-341 -340 -21 43 -21 44 280 279 c153 153 284 287 289 297 8 14 5 17
-17 17 -23 0 -78 -51 -303 -275 l-276 -274 -22 34 c-13 19 -23 38 -23 42 0 5
97 105 216 223 118 118 220 223 225 233 8 14 5 17 -17 17 -22 0 -69 -42 -243
-215 l-216 -214 -29 35 -28 36 171 172 c94 95 171 175 171 179 0 4 -12 7 -26
7 -21 0 -62 -35 -190 -162 l-164 -162 -32 32 -32 32 122 123 c67 68 122 127
122 130 0 4 -12 7 -26 7 -19 0 -55 -28 -142 -114 l-117 -114 -38 26 -38 25 81
82 c44 46 80 85 80 89 0 3 -11 6 -25 6 -18 0 -48 -22 -103 -74 l-77 -74 -43
22 -42 22 36 34 c19 19 40 43 45 53 19 34 -36 19 -85 -24 -45 -40 -47 -40 -83
-28 -54 17 -54 17 -37 45 16 23 15 24 -5 24 -12 0 -33 -7 -46 -16 -18 -12 -37
-14 -79 -9 -31 4 -56 10 -56 14 0 10 -280 4 -344 -8 -74 -14 -69 -14 -62 4 10
27 -37 17 -76 -15 -20 -17 -55 -37 -78 -45 -23 -8 -76 -32 -117 -54 l-75 -39
76 78 c42 43 76 80 76 84 0 3 -12 6 -27 6 -23 0 -168 -140 -881 -852z m1988
-208 c0 -3 -308 -313 -684 -689 l-684 -684 -21 34 c-12 19 -21 39 -21 44 0 20
1244 1254 1310 1300 l65 45 17 -23 c10 -12 18 -24 18 -27z m39 -107 l12 -47
-669 -669 -668 -668 -29 36 -28 37 679 679 c373 374 682 679 685 679 4 0 12
-21 18 -47z m-934 -593 c-297 -297 -543 -540 -546 -540 -3 0 -13 19 -23 42
l-16 43 417 417 418 418 140 79 c77 43 142 79 145 80 3 0 -238 -242 -535 -539z
m936 428 c-6 -19 -29 -52 -51 -73 l-40 -39 25 -11 c24 -10 4 -31 -570 -605
l-595 -595 -32 33 -33 32 650 650 c357 357 651 647 653 645 2 -2 -1 -19 -7
-37z m-1176 -468 c-198 -198 -363 -360 -366 -360 -4 0 -12 21 -19 46 l-13 46
272 271 272 272 102 41 c56 23 104 42 107 43 3 1 -157 -161 -355 -359z m1293
322 c19 -6 -53 -82 -611 -640 l-632 -632 -35 29 -35 30 610 610 c581 582 612
611 645 610 19 -1 45 -4 58 -7z m191 -28 c7 -6 -1301 -1314 -1314 -1314 -5 0
-25 9 -44 21 l-34 21 644 644 644 645 50 -6 c27 -3 52 -8 54 -11z m-1669 -279
c-123 -123 -227 -221 -231 -217 -3 4 -11 26 -16 48 l-10 42 151 150 151 151
85 24 c47 14 87 25 90 26 3 1 -96 -100 -220 -224z m1655 118 l-7 -68 -571
-573 c-611 -612 -572 -579 -644 -551 -27 10 -18 19 598 635 343 343 625 624
627 624 2 0 1 -30 -3 -67z m-1810 -73 c-60 -60 -111 -108 -112 -106 -2 2 -7
26 -12 54 -8 50 -7 52 31 89 32 32 51 41 116 54 42 9 79 17 82 18 2 1 -45 -48
-105 -109z m1771 -172 l-16 -73 -463 -462 -462 -461 -59 5 -58 6 533 533 c293
293 535 531 537 529 2 -2 -3 -37 -12 -77z m-71 -240 c-54 -142 -54 -143 -342
-430 -291 -291 -298 -296 -403 -313 l-45 -7 405 406 c223 223 406 406 407 406
1 0 -9 -28 -22 -62z m-299 -755 c-30 -59 -79 -112 -384 -417 l-349 -348 -22
35 c-11 19 -21 38 -21 43 0 5 134 142 298 305 228 227 317 309 382 351 47 31
94 65 104 77 11 12 21 21 23 21 2 0 -12 -30 -31 -67z m-953 -185 c-37 -37 -70
-68 -74 -68 -3 0 -13 19 -23 42 l-16 42 46 47 47 47 44 -21 43 -21 -67 -68z
m1277 85 c0 -3 -66 -73 -147 -155 -134 -134 -153 -150 -217 -177 -147 -60
-146 -58 59 148 l190 191 57 0 c32 0 58 -3 58 -7z m-585 -393 c-214 -214 -392
-390 -396 -390 -3 0 -15 17 -27 38 l-21 39 337 335 c322 320 339 336 392 351
125 35 130 42 -285 -373z m-516 340 l44 -12 -144 -144 c-79 -79 -149 -144
-155 -144 -6 0 -29 7 -49 16 l-38 16 143 143 c79 79 146 142 149 140 3 -1 26
-8 50 -15z m216 -240 l-249 -249 -24 41 -25 40 192 192 192 192 72 16 c40 8
76 16 82 17 5 0 -102 -111 -240 -249z m2 206 c1 -1 -71 -76 -162 -166 -152
-152 -164 -162 -180 -147 -9 10 -24 17 -34 17 -10 0 -21 3 -25 7 -4 4 60 74
141 155 l148 149 55 -7 c30 -4 56 -7 57 -8z m-522 -73 l35 -17 -57 -58 c-32
-32 -62 -58 -68 -58 -5 0 -25 9 -44 21 l-34 20 54 55 c29 30 59 54 66 54 7 0
28 -8 48 -17z m763 -375 c-9 -13 -52 -84 -98 -158 -46 -74 -101 -154 -123
-177 l-41 -43 -24 41 -24 41 158 159 c87 88 160 159 163 159 2 0 -3 -10 -11
-22z"/>
</g>
</svg>
