<?xml version="1.0" standalone="no"?>
<!DOCTYPE svg PUBLIC "-//W3C//DTD SVG 20010904//EN"
 "http://www.w3.org/TR/2001/REC-SVG-20010904/DTD/svg10.dtd">
<svg version="1.0" xmlns="http://www.w3.org/2000/svg"
 width="226.000000pt" height="223.000000pt" viewBox="0 0 226.000000 223.000000"
 preserveAspectRatio="xMidYMid meet">
<metadata>
Created by potrace 1.15, written by Peter Selinger 2001-2017
</metadata>
<g transform="translate(0.000000,223.000000) scale(0.100000,-0.100000)"
fill="#000000" stroke="none">
<path d="M204 2020 c-11 -4 -26 -22 -33 -38 -10 -25 -10 -35 3 -60 9 -17 26
-34 38 -37 13 -4 31 -17 40 -29 10 -11 18 -16 18 -9 0 6 -5 15 -10 18 -6 4 2
18 20 35 37 35 39 72 5 105 -25 26 -45 30 -81 15z"/>
<path d="M326 1766 c4 -9 -6 -16 -30 -20 -45 -9 -93 -57 -102 -102 -15 -79 49
-154 130 -154 46 0 68 11 72 35 3 22 24 45 40 45 10 0 14 14 14 49 0 31 5 51
12 53 8 3 3 10 -12 18 -14 7 -46 30 -71 51 -50 42 -61 47 -53 25z"/>
<path d="M1073 1730 c-20 -13 -38 -38 -49 -66 -16 -42 -16 -47 1 -90 21 -55
63 -84 120 -84 49 0 57 6 74 47 7 17 21 39 32 49 31 28 25 78 -14 120 -28 31
-41 37 -83 41 -38 3 -56 -1 -81 -17z"/>
<path d="M941 1657 c-6 -35 -11 -92 -11 -127 l0 -64 -36 42 c-35 41 -54 52
-54 32 0 -6 27 -56 60 -111 94 -157 132 -237 122 -257 -21 -39 -23 -106 -5
-142 20 -39 75 -80 108 -80 14 0 25 -8 28 -20 10 -38 -13 -31 -80 25 -105 87
-208 116 -338 95 -66 -11 -95 -15 -140 -18 -14 -2 -16 -5 -8 -13 8 -8 41 -10
98 -7 53 3 80 1 70 -4 -30 -17 -4 -28 28 -11 41 21 105 20 148 -2 47 -24 119
-77 119 -86 0 -5 -64 -10 -142 -11 -141 -3 -143 -3 -155 -28 -10 -19 -13 -100
-11 -343 l3 -319 24 -19 c22 -18 45 -19 460 -19 331 0 442 3 461 13 l25 13 3
257 c3 283 0 274 65 241 18 -9 39 -23 48 -31 14 -12 20 -10 47 22 17 19 49 42
72 51 22 9 40 21 40 26 0 10 -17 8 -50 -6 -13 -5 -14 4 -12 56 4 82 -25 141
-90 181 -93 58 -184 46 -263 -36 l-49 -51 -153 -3 -152 -3 -16 30 c-12 24 -13
30 -2 30 7 0 28 16 47 35 43 45 53 121 21 173 -28 43 -77 72 -124 72 l-38 0
17 30 c10 16 14 33 10 37 -8 9 -56 -45 -56 -63 0 -6 -8 -18 -18 -27 -17 -16
-20 -14 -45 41 -70 150 -81 217 -65 371 11 101 5 117 -11 28z m747 -1109 l-3
-323 -450 0 -450 0 -3 323 -2 322 455 0 455 0 -2 -322z"/>
<path d="M1994 1408 c-14 -16 -19 -36 -18 -63 1 -29 -4 -44 -20 -57 -12 -9
-17 -17 -12 -18 5 0 17 7 27 16 13 12 22 13 38 5 11 -6 29 -11 41 -11 29 0 70
44 70 75 0 14 -11 37 -25 50 -31 32 -75 33 -101 3z"/>
<path d="M361 1353 c-34 -17 -71 -82 -71 -125 0 -35 31 -87 65 -108 117 -72
252 57 187 179 -34 64 -113 87 -181 54z m123 -59 c44 -45 32 -110 -25 -139
-56 -29 -119 12 -119 77 0 80 88 118 144 62z"/>
<path d="M390 1297 c-52 -26 -49 -104 5 -129 58 -26 119 33 95 91 -6 16 -23
33 -36 40 -31 14 -33 14 -64 -2z"/>
<path d="M242 687 c-72 -77 41 -185 115 -110 26 25 28 25 55 10 15 -9 28 -12
28 -7 0 5 -13 16 -30 25 -18 9 -30 23 -30 36 0 11 -11 31 -25 44 -32 33 -83
34 -113 2z"/>
<path d="M643 24 c17 -18 36 -19 592 -19 369 0 578 4 584 10 7 7 -185 9 -576
7 -448 -2 -589 0 -602 10 -12 9 -11 7 2 -8z"/>
</g>
</svg>
